<svg xmlns="http://www.w3.org/2000/svg" width="1200" height="630" viewBox="0 0 1200 630" role="img" aria-label="Cosmic Atlas deep-space preview">
  <defs>
    <radialGradient id="nebulaA" cx="32%" cy="22%" r="62%">
      <stop offset="0" stop-color="#4989ff" stop-opacity=".55"/>
      <stop offset=".42" stop-color="#8d62ff" stop-opacity=".24"/>
      <stop offset="1" stop-color="#01020a" stop-opacity="0"/>
    </radialGradient>
    <radialGradient id="nebulaB" cx="78%" cy="48%" r="58%">
      <stop offset="0" stop-color="#80f7ff" stop-opacity=".32"/>
      <stop offset=".46" stop-color="#4989ff" stop-opacity=".16"/>
      <stop offset="1" stop-color="#01020a" stop-opacity="0"/>
    </radialGradient>
    <radialGradient id="horizon" cx="50%" cy="50%" r="50%">
      <stop offset="0" stop-color="#000"/>
      <stop offset=".48" stop-color="#000"/>
      <stop offset=".62" stop-color="#ffbc63" stop-opacity=".58"/>
      <stop offset=".78" stop-color="#80f7ff" stop-opacity=".22"/>
      <stop offset="1" stop-color="#01020a" stop-opacity="0"/>
    </radialGradient>
  </defs>
  <rect width="1200" height="630" fill="#01020a"/>
  <rect width="1200" height="630" fill="url(#nebulaA)"/>
  <rect width="1200" height="630" fill="url(#nebulaB)"/>
  <g opacity=".72" fill="#f4fbff">
    <circle cx="92" cy="86" r="2"/>
    <circle cx="190" cy="184" r="1.4"/>
    <circle cx="312" cy="72" r="1.8"/>
    <circle cx="460" cy="148" r="1.2"/>
    <circle cx="916" cy="108" r="1.7"/>
    <circle cx="1048" cy="236" r="1.3"/>
    <circle cx="1104" cy="78" r="1.8"/>
    <circle cx="746" cy="544" r="1.5"/>
    <circle cx="1004" cy="508" r="1.9"/>
    <circle cx="142" cy="492" r="1.4"/>
  </g>
  <ellipse cx="842" cy="342" rx="235" ry="68" fill="none" stroke="#ffbc63" stroke-width="16" opacity=".76"/>
  <ellipse cx="842" cy="342" rx="170" ry="42" fill="none" stroke="#80f7ff" stroke-width="5" opacity=".58"/>
  <circle cx="842" cy="342" r="92" fill="url(#horizon)"/>
  <text x="86" y="286" fill="#f4fbff" font-family="Inter, Segoe UI, Arial, sans-serif" font-size="76" font-weight="800" letter-spacing="-1">Cosmic Atlas</text>
  <text x="92" y="350" fill="#80f7ff" font-family="Inter, Segoe UI, Arial, sans-serif" font-size="25" font-weight="700" letter-spacing="4">PLANETS • GALAXIES • BLACK HOLES</text>
  <text x="92" y="420" fill="#dbeeff" opacity=".78" font-family="Inter, Segoe UI, Arial, sans-serif" font-size="30">A cinematic interactive deep-space infographic.</text>
</svg>
